<?xml version="1.0" encoding="UTF-8"?>
<svg id="svg63" width="816.87" height="1088.3" version="1.1" viewBox="0 0 816.87 1088.3" xmlns="http://www.w3.org/2000/svg">
 <defs id="defs64">
  <filter id="filter731" x="-.027809" y="-.028008" width="1.0556" height="1.0558" color-interpolation-filters="sRGB">
   <feFlood id="feFlood721" flood-color="rgb(0,0,0)" flood-opacity=".49804" result="flood"/>
   <feComposite id="feComposite723" in="flood" in2="SourceGraphic" operator="out" result="composite1"/>
   <feGaussianBlur id="feGaussianBlur725" in="composite1" result="blur" stdDeviation="2.80905"/>
   <feOffset id="feOffset727" dx="0" dy="0" result="offset"/>
   <feComposite id="feComposite729" in="offset" in2="SourceGraphic" operator="in" result="fbSourceGraphic"/>
   <feColorMatrix id="feColorMatrix1051" in="fbSourceGraphic" result="fbSourceGraphicAlpha" values="0 0 0 -1 0 0 0 0 -1 0 0 0 0 -1 0 0 0 0 1 0"/>
   <feFlood id="feFlood1053" flood-color="rgb(0,0,0)" flood-opacity=".49804" in="fbSourceGraphic" result="flood"/>
   <feComposite id="feComposite1055" in="flood" in2="fbSourceGraphic" operator="in" result="composite1"/>
   <feGaussianBlur id="feGaussianBlur1057" in="composite1" result="blur" stdDeviation="2.80905"/>
   <feOffset id="feOffset1059" dx="0" dy="-0.1" result="offset"/>
   <feComposite id="feComposite1061" in="fbSourceGraphic" in2="offset" result="composite2"/>
  </filter>
 </defs>
 <path id="Контур_746" d="m341.61 609.61-207.9 176.7 299.51 80.303z" fill="#57c997" stroke-width="1.0001" data-name="Контур 746"/>
 <path id="Контур_747" d="m140.87 350.36 507.32 350.34v-700.68z" fill="#57c997" data-name="Контур 747"/>
 <g id="Сгруппировать_1846" transform="translate(109.9,663.86)" opacity=".51" data-name="Сгруппировать 1846">
  <g id="Сгруппировать_1845" data-name="Сгруппировать 1845">
   <g id="Сгруппировать_1838" data-name="Сгруппировать 1838">
    <g id="Сгруппировать_1836" data-name="Сгруппировать 1836">
     <path id="Контур_812" transform="translate(-570.26,-365.16)" d="m575.48 367.77a2.611 2.611 0 1 1-2.61-2.611 2.608 2.608 0 0 1 2.61 2.611z" data-name="Контур 812"/>
     <circle id="Эллипс_41" transform="translate(39.319)" cx="2.611" cy="2.611" r="2.611" data-name="Эллипс 41"/>
     <circle id="Эллипс_42" transform="translate(78.638)" cx="2.611" cy="2.611" r="2.611" data-name="Эллипс 42"/>
     <circle id="Эллипс_43" transform="translate(117.96)" cx="2.611" cy="2.611" r="2.611" data-name="Эллипс 43"/>
     <path id="Контур_813" transform="translate(-472.81,-365.16)" d="m635.3 367.77a2.611 2.611 0 1 1-2.61-2.611 2.608 2.608 0 0 1 2.61 2.611z" data-name="Контур 813"/>
    </g>
    <g id="Сгруппировать_1837" transform="translate(19.659,29.949)" data-name="Сгруппировать 1837">
     <path id="Контур_814" transform="translate(-577.74,-376.55)" d="m582.96 379.16a2.611 2.611 0 1 1-2.61-2.613 2.61 2.61 0 0 1 2.61 2.613z" data-name="Контур 814"/>
     <circle id="Эллипс_44" transform="translate(39.319 .001)" cx="2.611" cy="2.611" r="2.611" data-name="Эллипс 44"/>
     <circle id="Эллипс_45" transform="translate(78.638 .001)" cx="2.611" cy="2.611" r="2.611" data-name="Эллипс 45"/>
     <path id="Контур_815" transform="translate(-504.65,-376.55)" d="m627.82 379.16a2.611 2.611 0 1 1-2.611-2.613 2.61 2.61 0 0 1 2.611 2.613z" data-name="Контур 815"/>
    </g>
   </g>
   <g id="Сгруппировать_1841" transform="translate(0,60.052)" data-name="Сгруппировать 1841">
    <g id="Сгруппировать_1839" data-name="Сгруппировать 1839">
     <path id="Контур_816" transform="translate(-570.26,-388)" d="m575.48 390.62a2.611 2.611 0 1 1-2.61-2.613 2.61 2.61 0 0 1 2.61 2.613z" data-name="Контур 816"/>
     <circle id="Эллипс_46" transform="translate(39.319 .001)" cx="2.611" cy="2.611" r="2.611" data-name="Эллипс 46"/>
     <circle id="Эллипс_47" transform="translate(78.638 .001)" cx="2.611" cy="2.611" r="2.611" data-name="Эллипс 47"/>
     <circle id="Эллипс_48" transform="translate(117.96 .001)" cx="2.611" cy="2.611" r="2.611" data-name="Эллипс 48"/>
     <path id="Контур_817" transform="translate(-472.81,-388)" d="m635.3 390.62a2.611 2.611 0 1 1-2.61-2.613 2.61 2.61 0 0 1 2.61 2.613z" data-name="Контур 817"/>
    </g>
    <g id="Сгруппировать_1840" transform="translate(19.659,29.951)" data-name="Сгруппировать 1840">
     <path id="Контур_818" transform="translate(-577.74,-399.4)" d="m582.96 402.01a2.611 2.611 0 1 1-2.61-2.611 2.608 2.608 0 0 1 2.61 2.611z" data-name="Контур 818"/>
     <circle id="Эллипс_49" transform="translate(39.319)" cx="2.611" cy="2.611" r="2.611" data-name="Эллипс 49"/>
     <circle id="Эллипс_50" transform="translate(78.638)" cx="2.611" cy="2.611" r="2.611" data-name="Эллипс 50"/>
     <path id="Контур_819" transform="translate(-504.65,-399.4)" d="m627.82 402.01a2.611 2.611 0 1 1-2.611-2.611 2.609 2.609 0 0 1 2.611 2.611z" data-name="Контур 819"/>
    </g>
   </g>
   <g id="Сгруппировать_1844" transform="translate(0,120.11)" data-name="Сгруппировать 1844">
    <g id="Сгруппировать_1842" data-name="Сгруппировать 1842">
     <path id="Контур_820" transform="translate(-570.26,-410.85)" d="m575.48 413.46a2.611 2.611 0 1 1-2.61-2.611 2.61 2.61 0 0 1 2.61 2.611z" data-name="Контур 820"/>
     <circle id="Эллипс_51" transform="translate(39.319)" cx="2.611" cy="2.611" r="2.611" data-name="Эллипс 51"/>
     <circle id="Эллипс_52" transform="translate(78.638)" cx="2.611" cy="2.611" r="2.611" data-name="Эллипс 52"/>
     <circle id="Эллипс_53" transform="translate(117.96)" cx="2.611" cy="2.611" r="2.611" data-name="Эллипс 53"/>
     <path id="Контур_821" transform="translate(-472.81,-410.85)" d="m635.3 413.46a2.611 2.611 0 1 1-2.61-2.611 2.61 2.61 0 0 1 2.61 2.611z" data-name="Контур 821"/>
    </g>
    <g id="Сгруппировать_1843" transform="translate(19.659,29.95)" data-name="Сгруппировать 1843">
     <path id="Контур_822" transform="translate(-577.74,-422.24)" d="m582.96 424.85a2.611 2.611 0 1 1-2.61-2.61 2.611 2.611 0 0 1 2.61 2.61z" data-name="Контур 822"/>
     <circle id="Эллипс_54" transform="translate(39.319)" cx="2.611" cy="2.611" r="2.611" data-name="Эллипс 54"/>
     <circle id="Эллипс_55" transform="translate(78.638)" cx="2.611" cy="2.611" r="2.611" data-name="Эллипс 55"/>
     <path id="Контур_823" transform="translate(-504.65,-422.24)" d="m627.82 424.85a2.611 2.611 0 1 1-2.611-2.61 2.611 2.611 0 0 1 2.611 2.61z" data-name="Контур 823"/>
    </g>
   </g>
  </g>
 </g>
 <path id="Контур_831" d="m157.22 1079.6h-139.38v-139.38h139.38zm-139.12-0.25h138.88v-138.88h-138.88zm117.72-21.155h-96.568v-96.568h96.568zm-96.318-0.25h96.068v-96.068h-96.07z" data-name="Контур 831"/>
 <path id="Контур_832" d="m610.09 655.14h-139.38v-139.38h139.38zm-139.13-0.25h138.88v-138.88h-138.88zm117.72-21.152h-96.568v-96.568h96.568zm-96.318-0.25h96.068v-96.068h-96.068z" data-name="Контур 832"/>
 <path id="Контур_838" d="m37.73 514.68a23.774 23.774 0 0 1-2.905-0.181 46.324 46.324 0 0 1-10.9-3.165c-6.883-2.635-14-5.359-23.842-1.11l-0.066-0.153a26.85 26.85 0 0 1 6.935-2.009 23.071 23.071 0 0 1 6.132-0.049 46.317 46.317 0 0 1 10.9 3.165c6.883 2.635 14 5.359 23.843 1.111s12.74-11.3 15.543-18.113a46.316 46.316 0 0 1 5.172-10.1 23.072 23.072 0 0 1 4.241-4.429 28.82 28.82 0 0 1 13.154-5.678 23.078 23.078 0 0 1 6.132-0.049 46.32 46.32 0 0 1 10.9 3.165c6.883 2.635 14 5.359 23.843 1.109s12.743-11.3 15.547-18.113a46.331 46.331 0 0 1 5.174-10.1 23.084 23.084 0 0 1 4.242-4.429 28.82 28.82 0 0 1 13.155-5.679 23.084 23.084 0 0 1 6.133-0.049 46.331 46.331 0 0 1 10.9 3.164c6.884 2.634 14 5.357 23.846 1.108l0.066 0.153a26.867 26.867 0 0 1-6.937 2.009 23.087 23.087 0 0 1-6.133 0.049 46.333 46.333 0 0 1-10.9-3.164c-6.884-2.634-14-5.357-23.846-1.108s-12.743 11.3-15.547 18.113a46.332 46.332 0 0 1-5.174 10.1 23.084 23.084 0 0 1-4.242 4.429 28.821 28.821 0 0 1-13.154 5.679 23.076 23.076 0 0 1-6.132 0.049 46.323 46.323 0 0 1-10.9-3.165c-6.883-2.635-14-5.359-23.843-1.109s-12.74 11.3-15.543 18.111a46.326 46.326 0 0 1-5.172 10.1 23.075 23.075 0 0 1-4.241 4.429 28.8 28.8 0 0 1-13.153 5.678 22.924 22.924 0 0 1-3.228 0.231z" data-name="Контур 838"/>
 <path id="Контур_839" d="m510.11 956.92a23.78 23.78 0 0 1-2.9-0.181 46.329 46.329 0 0 1-10.9-3.165c-6.883-2.635-14-5.36-23.843-1.11l-0.066-0.153a26.85 26.85 0 0 1 6.935-2.009 23.076 23.076 0 0 1 6.132-0.049 46.326 46.326 0 0 1 10.9 3.165c6.883 2.635 14 5.359 23.841 1.111s12.74-11.3 15.543-18.112a46.324 46.324 0 0 1 5.173-10.1 23.078 23.078 0 0 1 4.241-4.43 28.81 28.81 0 0 1 13.154-5.678 23.078 23.078 0 0 1 6.132-0.048 46.333 46.333 0 0 1 10.9 3.165c6.883 2.634 14 5.359 23.842 1.111s12.743-11.3 15.547-18.114a46.328 46.328 0 0 1 5.174-10.1 23.076 23.076 0 0 1 4.242-4.429 28.827 28.827 0 0 1 13.155-5.678 23.088 23.088 0 0 1 6.133-0.049 46.331 46.331 0 0 1 10.9 3.164c6.883 2.634 14 5.357 23.846 1.108l0.066 0.153a26.865 26.865 0 0 1-6.937 2.009 23.084 23.084 0 0 1-6.133 0.049 46.333 46.333 0 0 1-10.9-3.164c-6.884-2.634-14-5.357-23.846-1.108s-12.743 11.3-15.547 18.113a46.336 46.336 0 0 1-5.174 10.1 23.083 23.083 0 0 1-4.242 4.43 28.809 28.809 0 0 1-13.154 5.678 23.078 23.078 0 0 1-6.132 0.048 46.33 46.33 0 0 1-10.9-3.165c-6.883-2.635-14-5.359-23.842-1.111s-12.742 11.3-15.546 18.114a46.325 46.325 0 0 1-5.173 10.1 23.08 23.08 0 0 1-4.241 4.429 28.8 28.8 0 0 1-13.152 5.678 22.9 22.9 0 0 1-3.228 0.228z" data-name="Контур 839"/>
 <g id="Сгруппировать_1882" transform="translate(344.3,984.46)" data-name="Сгруппировать 1882">
  <g id="Сгруппировать_1881" data-name="Сгруппировать 1881">
   <g id="Сгруппировать_1877" transform="translate(0,16.98)" data-name="Сгруппировать 1877">
    <g id="Сгруппировать_1875" data-name="Сгруппировать 1875">
     <path id="Контур_860" transform="translate(-675.39,-494.34)" d="m675.39 501.59 12.544 7.242v-14.485z" data-name="Контур 860"/>
    </g>
    <g id="Сгруппировать_1876" transform="translate(35.901)" data-name="Сгруппировать 1876">
     <path id="Контур_861" transform="translate(-689.05,-494.34)" d="m701.59 501.59-12.544-7.242v14.484z" data-name="Контур 861"/>
    </g>
   </g>
   <g id="Сгруппировать_1880" transform="translate(16.98)" data-name="Сгруппировать 1880">
    <g id="Сгруппировать_1878" transform="translate(0,35.901)" data-name="Сгруппировать 1878">
     <path id="Контур_862" transform="translate(-681.85,-501.54)" d="m689.09 514.09 7.242-12.544h-14.485z" data-name="Контур 862"/>
    </g>
    <g id="Сгруппировать_1879" data-name="Сгруппировать 1879">
     <path id="Контур_863" transform="translate(-681.85,-487.89)" d="m689.09 487.89-7.242 12.544h14.485z" data-name="Контур 863"/>
    </g>
   </g>
  </g>
 </g>
 <path id="Эллипс_7" transform="rotate(-45 -7.226 1.5287)" d="m59.529 991.56a251.42 251.42 0 0 1-251.42 251.42 251.42 251.42 0 0 1-251.42-251.42 251.42 251.42 0 0 1 251.42-251.42 251.42 251.42 0 0 1 251.42 251.42z" fill="#f00" filter="url(#filter731)" stroke="#fff"/>
 <path id="path2044" d="m523.4 1072.9c-57.399-10.296-101.11-34.346-142.44-78.378-25.583-27.252-44.997-63.018-55.112-101.53-5.8476-22.267-6.3488-26.772-6.5091-58.506-0.22566-44.673 5.3883-71.566 22.588-108.2 20.486-43.637 60.684-85.442 105.44-109.66 34.313-18.564 62.571-25.879 105.36-27.272 36.835-1.1997 60.522 2.04 90.739 12.41 57.822 19.844 114.58 71.572 139.97 127.55 30.507 67.281 29.307 146.89-3.1904 211.64-23.163 46.153-64.086 86.994-109.81 109.59-44.35 21.918-101.23 30.565-147.03 22.35z" fill="#f9f9f9" stroke="#fff" stroke-width="2.0225"/>
 <path id="path2159" d="m521.59 1071.1c-53.226-10.049-97.838-34.35-135.58-73.85-49.205-51.503-70.781-115.84-64.052-191.01 2.4971-27.895 7.0804-46.023 18.096-71.573 26.787-62.133 89.969-117.86 153.6-135.48 36.761-10.178 94.1-10.855 130.27-1.5383 64.186 16.531 126.01 67.258 155.62 127.69 31.796 64.892 32.046 145.43 0.65533 211-32.722 68.354-93.794 116.39-168.82 132.79-21.604 4.7212-69.627 5.7735-89.787 1.9674z" fill="#fff" stroke="#fff" stroke-width="2.0225"/>
</svg>
