<?xml version="1.0" encoding="UTF-8"?>
<svg id="svg229" width="2801.4" height="996.12" version="1.1" viewBox="0 0 2801.4 996.12" xmlns="http://www.w3.org/2000/svg">
 <g id="Сгруппировать_1901" transform="translate(3220.2 -870.22)">
  <circle id="Эллипс_4" transform="rotate(-45 -130.44 4500)" cx="251.42" cy="251.42" r="251.42" fill="#d7d5e4"/>
  <g id="Сгруппировать_1774" transform="translate(-2880.2 1251.7)">
   <g id="Сгруппировать_1770">
    <g id="Сгруппировать_1768">
     <path id="Контур_690" transform="translate(-43.899,-34.505)" d="m43.9 112.56 19.314 11.151v-22.3z"/>
     <path id="Контур_691" transform="translate(-43.899,-48.323)" d="m43.9 104.08 19.314 11.151v-22.3z"/>
     <path id="Контур_692" transform="translate(-43.899,-62.142)" d="m43.9 95.594 19.314 11.151v-22.3z"/>
     <path id="Контур_693" transform="translate(-43.899,-75.96)" d="m43.9 87.111 19.313 11.15v-22.301z"/>
    </g>
    <g id="Сгруппировать_1769" transform="translate(19.314,11.151)">
     <path id="Контур_694" transform="translate(-51.246,-52.565)" d="m51.246 108.32 19.314 11.15v-22.3z"/>
     <path id="Контур_695" transform="translate(-51.246,-66.383)" d="m51.246 99.836 19.314 11.15v-22.3z"/>
     <path id="Контур_696" transform="translate(-51.246,-80.202)" d="m51.246 91.352 19.314 11.148v-22.3z"/>
    </g>
   </g>
   <g id="Сгруппировать_1773" transform="translate(38.627)">
    <g id="Сгруппировать_1771">
     <path id="Контур_697" transform="translate(-58.593,-34.505)" d="m58.593 112.56 19.314 11.151v-22.3z"/>
     <path id="Контур_698" transform="translate(-58.593,-48.323)" d="m58.593 104.08 19.314 11.151v-22.3z"/>
     <path id="Контур_699" transform="translate(-58.593,-62.142)" d="m58.593 95.594 19.314 11.151v-22.3z"/>
     <path id="Контур_700" transform="translate(-58.593,-75.96)" d="m58.593 87.111 19.313 11.15v-22.301z"/>
    </g>
    <g id="Сгруппировать_1772" transform="translate(19.314,11.151)">
     <path id="Контур_701" transform="translate(-65.939,-52.565)" d="m65.939 108.32 19.314 11.151v-22.3z"/>
     <path id="Контур_702" transform="translate(-65.939,-66.383)" d="m65.939 99.836 19.314 11.151v-22.3z"/>
     <path id="Контур_703" transform="translate(-65.939,-80.202)" d="m65.939 91.352 19.314 11.148v-22.3z"/>
    </g>
   </g>
  </g>
  <g id="g60" transform="translate(-3220.2 870.22)" filter="url(#%D0%9A%D0%BE%D0%BD%D1%82%D1%83%D1%80_748)">
   <path id="Контур_748-2" transform="translate(406.28,95.94)" d="m401.42 147.5-289.89-200.2v400.39z" fill="#fff"/>
  </g>
  <g id="g63" transform="translate(-3220.2 870.22)" filter="url(#%D0%9A%D0%BE%D0%BD%D1%82%D1%83%D1%80_749)">
   <path id="Контур_749-2" transform="translate(211.07,359.39)" d="m363.16 365.57-371.48-256.53v513.06z" fill="#fff"/>
  </g>
  <g id="Сгруппировать_1813" transform="translate(-2893.6 1638.8)" opacity=".51">
   <g id="Сгруппировать_1812">
    <g id="Сгруппировать_1805">
     <g id="Сгруппировать_1803">
      <path id="Контур_764" transform="translate(-38.784 -223.2)" d="m44.008 225.81a2.612 2.612 0 1 1-2.613-2.611 2.611 2.611 0 0 1 2.613 2.611z"/>
      <circle id="Эллипс_8" transform="translate(39.319)" cx="2.611" cy="2.611" r="2.611"/>
      <circle id="Эллипс_9" transform="translate(78.638)" cx="2.611" cy="2.611" r="2.611"/>
      <circle id="Эллипс_10" transform="translate(117.96)" cx="2.611" cy="2.611" r="2.611"/>
      <circle id="Эллипс_11" transform="translate(157.28)" cx="2.611" cy="2.611" r="2.611"/>
     </g>
     <g id="Сгруппировать_1804" transform="translate(19.659,29.949)">
      <path id="Контур_765" transform="translate(-46.262 -234.59)" d="m51.486 237.2a2.612 2.612 0 1 1-2.611-2.613 2.612 2.612 0 0 1 2.611 2.613z"/>
      <path id="Контур_766" transform="translate(-21.898 -234.59)" d="m66.44 237.2a2.611 2.611 0 1 1-2.611-2.613 2.612 2.612 0 0 1 2.611 2.613z"/>
      <path id="Контур_767" transform="translate(2.464 -234.59)" d="m81.4 237.2a2.611 2.611 0 1 1-2.611-2.613 2.61 2.61 0 0 1 2.611 2.613z"/>
      <path id="Контур_768" transform="translate(26.826 -234.59)" d="m96.352 237.2a2.611 2.611 0 1 1-2.611-2.613 2.61 2.61 0 0 1 2.611 2.613z"/>
     </g>
    </g>
    <g id="Сгруппировать_1808" transform="translate(0,60.053)">
     <g id="Сгруппировать_1806">
      <path id="Контур_769" transform="translate(-38.784,-246.04)" d="m44.008 248.65a2.612 2.612 0 1 1-2.613-2.611 2.613 2.613 0 0 1 2.613 2.611z"/>
      <circle id="Эллипс_12" transform="translate(39.319 .001)" cx="2.611" cy="2.611" r="2.611"/>
      <circle id="Эллипс_13" transform="translate(78.638 .001)" cx="2.611" cy="2.611" r="2.611"/>
      <circle id="Эллипс_14" transform="translate(117.96 .001)" cx="2.611" cy="2.611" r="2.611"/>
      <circle id="Эллипс_15" transform="translate(157.28 .001)" cx="2.611" cy="2.611" r="2.611"/>
     </g>
     <g id="Сгруппировать_1807" transform="translate(19.659,29.951)">
      <path id="Контур_770" transform="translate(-46.262 -257.43)" d="m51.486 260.04a2.612 2.612 0 1 1-2.611-2.61 2.612 2.612 0 0 1 2.611 2.61z"/>
      <path id="Контур_771" transform="translate(-21.898 -257.43)" d="m66.44 260.04a2.611 2.611 0 1 1-2.611-2.61 2.612 2.612 0 0 1 2.611 2.61z"/>
      <path id="Контур_772" transform="translate(2.464 -257.43)" d="m81.4 260.04a2.611 2.611 0 1 1-2.611-2.61 2.61 2.61 0 0 1 2.611 2.61z"/>
      <path id="Контур_773" transform="translate(26.826 -257.43)" d="m96.352 260.04a2.611 2.611 0 1 1-2.611-2.61 2.61 2.61 0 0 1 2.611 2.61z"/>
     </g>
    </g>
    <g id="Сгруппировать_1811" transform="translate(0 120.1)">
     <g id="Сгруппировать_1809">
      <path id="Контур_774" transform="translate(-38.784 -268.88)" d="m44.008 271.5a2.612 2.612 0 1 1-2.613-2.613 2.612 2.612 0 0 1 2.613 2.613z"/>
      <circle id="Эллипс_16" transform="translate(39.319 .001)" cx="2.611" cy="2.611" r="2.611"/>
      <circle id="Эллипс_17" transform="translate(78.638 .001)" cx="2.611" cy="2.611" r="2.611"/>
      <circle id="Эллипс_18" transform="translate(117.96 .001)" cx="2.611" cy="2.611" r="2.611"/>
      <circle id="Эллипс_19" transform="translate(157.28 .001)" cx="2.611" cy="2.611" r="2.611"/>
     </g>
     <g id="Сгруппировать_1810" transform="translate(19.66,29.951)">
      <circle id="Эллипс_20" cx="2.611" cy="2.611" r="2.611"/>
      <circle id="Эллипс_21" transform="translate(39.319)" cx="2.611" cy="2.611" r="2.611"/>
      <circle id="Эллипс_22" transform="translate(78.637)" cx="2.611" cy="2.611" r="2.611"/>
      <path id="Контур_775" transform="translate(26.825 -280.28)" d="m96.352 282.89a2.611 2.611 0 1 1-2.611-2.611 2.609 2.609 0 0 1 2.611 2.611z"/>
     </g>
    </g>
   </g>
  </g>
  <path id="Контур_830" transform="translate(-2741.2 1110.7)" d="m295.31 175.18h-139.12v-139.12h139.12zm-117.72-21.4h96.316v-96.32h-96.316z" fill="none" stroke="#000" stroke-miterlimit="10" stroke-width=".25"/>
  <path id="Контур_836" transform="translate(-3047.2 1098)" d="m-31.685 98.66c19.748-8.523 28.064 10.744 47.81 2.219s11.43-27.79 31.175-36.313 28.064 10.742 47.81 2.219 11.433-27.793 31.184-36.319 28.066 10.742 47.815 2.216" fill="none" stroke="#000" stroke-miterlimit="10" stroke-width=".166"/>
  <g id="Сгруппировать_1860" transform="translate(-2578.9 1418.8)" fill="#ffc248">
   <g id="Сгруппировать_1858" transform="translate(0,16.98)">
    <path id="Контур_844" transform="translate(-158.49 -145.97)" d="m158.49 153.21 12.544 7.242v-14.484z"/>
    <path id="Контур_845" transform="translate(-136.25 -145.97)" d="m184.69 153.21-12.544-7.242v14.485z"/>
   </g>
   <g id="Сгруппировать_1859" transform="translate(16.98)">
    <path id="Контур_846" transform="translate(-164.95 -117.26)" d="m172.2 165.71 7.242-12.544h-14.485z"/>
    <path id="Контур_847" transform="translate(-164.95 -139.51)" d="m172.2 139.51-7.242 12.544h14.485z"/>
   </g>
  </g>
 </g>
 <path id="Контур_833" d="m1509.1 825.58h-139.12v-139.12h139.12zm-117.72-21.4h96.318v-96.319h-96.318z" fill="none" stroke="#000" stroke-miterlimit="10" stroke-width=".25"/>
 <path id="Контур_840" d="m1127.5 791.22c19.748-8.523 28.064 10.744 47.81 2.219s11.43-27.79 31.176-36.313 28.064 10.742 47.81 2.219 11.433-27.793 31.184-36.319 28.066 10.741 47.814 2.212" fill="none" stroke="#000" stroke-miterlimit="10" stroke-width=".166"/>
 <g id="Сгруппировать_1900" transform="translate(519.71 -1229.3)">
  <g id="Сгруппировать_1899" transform="translate(2910 -354.88)">
   <path id="Контур_746" transform="translate(-2123.3 1622.2)" d="m535.47 613.11 380.92 263.06v-526.11z" fill="#d7d5e4"/>
   <path id="Контур_747" transform="translate(-1887.3 1422)" d="m680.37 427.98 290.8 200.82v-401.64z" fill="#d7d5e4"/>
   <g id="Сгруппировать_1846" transform="translate(-1496.4 2012)" opacity=".51">
    <g id="Сгруппировать_1845">
     <g id="Сгруппировать_1838">
      <g id="Сгруппировать_1836">
       <path id="Контур_812" transform="translate(-570.26 -365.16)" d="m575.48 367.77a2.611 2.611 0 1 1-2.61-2.611 2.608 2.608 0 0 1 2.61 2.611z"/>
       <circle id="Эллипс_41" transform="translate(39.319)" cx="2.611" cy="2.611" r="2.611"/>
       <circle id="Эллипс_42" transform="translate(78.638)" cx="2.611" cy="2.611" r="2.611"/>
       <circle id="Эллипс_43" transform="translate(117.96)" cx="2.611" cy="2.611" r="2.611"/>
       <path id="Контур_813" transform="translate(-472.81 -365.16)" d="m635.3 367.77a2.611 2.611 0 1 1-2.61-2.611 2.608 2.608 0 0 1 2.61 2.611z"/>
      </g>
      <g id="Сгруппировать_1837" transform="translate(19.659,29.949)">
       <path id="Контур_814" transform="translate(-577.74 -376.55)" d="m582.96 379.16a2.611 2.611 0 1 1-2.61-2.613 2.61 2.61 0 0 1 2.61 2.613z"/>
       <circle id="Эллипс_44" transform="translate(39.319 .001)" cx="2.611" cy="2.611" r="2.611"/>
       <circle id="Эллипс_45" transform="translate(78.638 .001)" cx="2.611" cy="2.611" r="2.611"/>
       <path id="Контур_815" transform="translate(-504.65 -376.55)" d="m627.82 379.16a2.611 2.611 0 1 1-2.611-2.613 2.61 2.61 0 0 1 2.611 2.613z"/>
      </g>
     </g>
     <g id="Сгруппировать_1841" transform="translate(0,60.052)">
      <g id="Сгруппировать_1839">
       <path id="Контур_816" transform="translate(-570.26 -388)" d="m575.48 390.62a2.611 2.611 0 1 1-2.61-2.613 2.61 2.61 0 0 1 2.61 2.613z"/>
       <circle id="Эллипс_46" transform="translate(39.319 .001)" cx="2.611" cy="2.611" r="2.611"/>
       <circle id="Эллипс_47" transform="translate(78.638 .001)" cx="2.611" cy="2.611" r="2.611"/>
       <circle id="Эллипс_48" transform="translate(117.96 .001)" cx="2.611" cy="2.611" r="2.611"/>
       <path id="Контур_817" transform="translate(-472.81 -388)" d="m635.3 390.62a2.611 2.611 0 1 1-2.61-2.613 2.61 2.61 0 0 1 2.61 2.613z"/>
      </g>
      <g id="Сгруппировать_1840" transform="translate(19.659,29.951)">
       <path id="Контур_818" transform="translate(-577.74 -399.4)" d="m582.96 402.01a2.611 2.611 0 1 1-2.61-2.611 2.608 2.608 0 0 1 2.61 2.611z"/>
       <circle id="Эллипс_49" transform="translate(39.319)" cx="2.611" cy="2.611" r="2.611"/>
       <circle id="Эллипс_50" transform="translate(78.638)" cx="2.611" cy="2.611" r="2.611"/>
       <path id="Контур_819" transform="translate(-504.65 -399.4)" d="m627.82 402.01a2.611 2.611 0 1 1-2.611-2.611 2.609 2.609 0 0 1 2.611 2.611z"/>
      </g>
     </g>
     <g id="Сгруппировать_1844" transform="translate(0 120.11)">
      <g id="Сгруппировать_1842">
       <path id="Контур_820" transform="translate(-570.26 -410.85)" d="m575.48 413.46a2.611 2.611 0 1 1-2.61-2.611 2.61 2.61 0 0 1 2.61 2.611z"/>
       <circle id="Эллипс_51" transform="translate(39.319)" cx="2.611" cy="2.611" r="2.611"/>
       <circle id="Эллипс_52" transform="translate(78.638)" cx="2.611" cy="2.611" r="2.611"/>
       <circle id="Эллипс_53" transform="translate(117.96)" cx="2.611" cy="2.611" r="2.611"/>
       <path id="Контур_821" transform="translate(-472.81 -410.85)" d="m635.3 413.46a2.611 2.611 0 1 1-2.61-2.611 2.61 2.61 0 0 1 2.61 2.611z"/>
      </g>
      <g id="Сгруппировать_1843" transform="translate(19.659,29.95)">
       <path id="Контур_822" transform="translate(-577.74 -422.24)" d="m582.96 424.85a2.611 2.611 0 1 1-2.61-2.61 2.611 2.611 0 0 1 2.61 2.61z"/>
       <circle id="Эллипс_54" transform="translate(39.319)" cx="2.611" cy="2.611" r="2.611"/>
       <circle id="Эллипс_55" transform="translate(78.638)" cx="2.611" cy="2.611" r="2.611"/>
       <path id="Контур_823" transform="translate(-504.65 -422.24)" d="m627.82 424.85a2.611 2.611 0 1 1-2.611-2.61 2.611 2.611 0 0 1 2.611 2.61z"/>
      </g>
     </g>
    </g>
   </g>
   <path id="Контур_831" transform="translate(-2097.6 1819.4)" d="m690.4 610.22h-139.12v-139.12h139.12zm-117.72-21.4h96.323v-96.323h-96.323z" fill="none" stroke="#000" stroke-miterlimit="10" stroke-width=".25"/>
   <path id="Контур_832" transform="translate(-1817 1556.4)" d="m862.67 448.75h-139.13v-139.12h139.13zm-117.72-21.4h96.318v-96.32h-96.318z" fill="none" stroke="#000" stroke-miterlimit="10" stroke-width=".25"/>
   <path id="Контур_838" transform="translate(-2108.7 1509.2)" d="m544.45 351.09c19.746-8.525 28.061 10.742 47.81 2.219s11.428-27.79 31.174-36.313 28.064 10.742 47.812 2.216 11.433-27.79 31.182-36.316 28.066 10.739 47.817 2.214" fill="none" stroke="#000" stroke-miterlimit="10" stroke-width=".166"/>
   <path id="Контур_839" transform="translate(-1816 1783.2)" d="m724.13 519.32c19.746-8.526 28.064 10.742 47.81 2.219s11.428-27.79 31.176-36.316 28.064 10.742 47.809 2.219 11.433-27.793 31.182-36.316 28.066 10.739 47.817 2.214" fill="none" stroke="#000" stroke-miterlimit="10" stroke-width=".166"/>
   <g id="Сгруппировать_1882" transform="translate(-1220 2334.6)">
    <g id="Сгруппировать_1881">
     <g id="Сгруппировать_1877" transform="translate(0,16.98)">
      <g id="Сгруппировать_1875">
       <path id="Контур_860" transform="translate(-675.39 -494.34)" d="m675.39 501.59 12.544 7.242v-14.485z"/>
      </g>
      <g id="Сгруппировать_1876" transform="translate(35.901)">
       <path id="Контур_861" transform="translate(-689.05 -494.34)" d="m701.59 501.59-12.544-7.242v14.484z"/>
      </g>
     </g>
     <g id="Сгруппировать_1880" transform="translate(16.98)">
      <g id="Сгруппировать_1878" transform="translate(0,35.901)">
       <path id="Контур_862" transform="translate(-681.85 -501.54)" d="m689.09 514.09 7.242-12.544h-14.485z"/>
      </g>
      <g id="Сгруппировать_1879">
       <path id="Контур_863" transform="translate(-681.85 -487.89)" d="m689.09 487.89-7.242 12.544h14.485z"/>
      </g>
     </g>
    </g>
   </g>
   <g id="g194" transform="translate(-3429.7 1584.2)" filter="url(#%D0%AD%D0%BB%D0%BB%D0%B8%D0%BF%D1%81_7)">
    <circle id="Эллипс_7-2" transform="rotate(-45 1765.2 -2203.7)" cx="251.42" cy="251.42" r="251.42" fill="#fff"/>
   </g>
  </g>
 </g>
 <path id="Контур_841" d="m879.65 151.15c19.746-8.526 28.061 10.742 47.807 2.219s11.431-27.79 31.176-36.316 28.064 10.742 47.81 2.219 11.433-27.793 31.184-36.319 28.066 10.742 47.815 2.216" fill="none" stroke="#000" stroke-miterlimit="10" stroke-width=".166"/>
</svg>
