<svg xmlns="http://www.w3.org/2000/svg" xmlns:xlink="http://www.w3.org/1999/xlink" width="2699.32" height="1452.857" viewBox="0 0 2699.32 1452.857">
  <defs>
    <filter id="Эллипс_7" x="1782.68" y="625.549" width="532.848" height="532.848" filterUnits="userSpaceOnUse">
      <feOffset input="SourceAlpha"/>
      <feGaussianBlur stdDeviation="5" result="blur"/>
      <feFlood flood-color="#282828" flood-opacity="0.302"/>
      <feComposite operator="in" in2="blur"/>
      <feComposite in="SourceGraphic"/>
    </filter>
    <filter id="Эллипс_7-2" x="292.425" y="920.009" width="532.848" height="532.848" filterUnits="userSpaceOnUse">
      <feOffset input="SourceAlpha"/>
      <feGaussianBlur stdDeviation="5" result="blur-2"/>
      <feFlood flood-color="#282828" flood-opacity="0.302"/>
      <feComposite operator="in" in2="blur-2"/>
      <feComposite in="SourceGraphic"/>
    </filter>
  </defs>
  <g id="Сгруппировать_2012" data-name="Сгруппировать 2012" transform="translate(454.375 -4336.371)">
    <g id="Сгруппировать_1921" data-name="Сгруппировать 1921" transform="translate(1538.824 2581.473) rotate(45)">
      <g id="Сгруппировать_1899" data-name="Сгруппировать 1899" transform="translate(2910 -354.882)">
        <path id="Контур_746" data-name="Контур 746" d="M535.47,505.081l224.49,155.026V350.056Z" transform="matrix(-0.259, 0.966, -0.966, -0.259, -596.102, 1573.254)" fill="#d7d5e4"/>
        <path id="Контур_747" data-name="Контур 747" d="M680.368,577.5l507.318,350.338V227.157Z" transform="translate(-2103.823 1122.981)" fill="#f4f4f8"/>
        <g id="Сгруппировать_1846" data-name="Сгруппировать 1846" transform="translate(-1454.411 2013.977)" opacity="0.51">
          <g id="Сгруппировать_1845" data-name="Сгруппировать 1845">
            <g id="Сгруппировать_1838" data-name="Сгруппировать 1838">
              <g id="Сгруппировать_1836" data-name="Сгруппировать 1836">
                <path id="Контур_812" data-name="Контур 812" d="M575.478,367.771a2.611,2.611,0,1,1-2.61-2.611A2.608,2.608,0,0,1,575.478,367.771Z" transform="translate(-570.257 -365.16)"/>
                <circle id="Эллипс_41" data-name="Эллипс 41" cx="2.611" cy="2.611" r="2.611" transform="translate(39.319)"/>
                <circle id="Эллипс_42" data-name="Эллипс 42" cx="2.611" cy="2.611" r="2.611" transform="translate(78.638)"/>
                <circle id="Эллипс_43" data-name="Эллипс 43" cx="2.611" cy="2.611" r="2.611" transform="translate(117.956)"/>
                <path id="Контур_813" data-name="Контур 813" d="M635.3,367.771a2.611,2.611,0,1,1-2.61-2.611A2.608,2.608,0,0,1,635.3,367.771Z" transform="translate(-472.807 -365.16)"/>
              </g>
              <g id="Сгруппировать_1837" data-name="Сгруппировать 1837" transform="translate(19.659 29.949)">
                <path id="Контур_814" data-name="Контур 814" d="M582.956,379.165a2.611,2.611,0,1,1-2.61-2.613A2.61,2.61,0,0,1,582.956,379.165Z" transform="translate(-577.735 -376.552)"/>
                <circle id="Эллипс_44" data-name="Эллипс 44" cx="2.611" cy="2.611" r="2.611" transform="translate(39.319 0.001)"/>
                <circle id="Эллипс_45" data-name="Эллипс 45" cx="2.611" cy="2.611" r="2.611" transform="translate(78.638 0.001)"/>
                <path id="Контур_815" data-name="Контур 815" d="M627.825,379.165a2.611,2.611,0,1,1-2.611-2.613A2.61,2.61,0,0,1,627.825,379.165Z" transform="translate(-504.647 -376.552)"/>
              </g>
            </g>
            <g id="Сгруппировать_1841" data-name="Сгруппировать 1841" transform="translate(0 60.052)">
              <g id="Сгруппировать_1839" data-name="Сгруппировать 1839">
                <path id="Контур_816" data-name="Контур 816" d="M575.478,390.616a2.611,2.611,0,1,1-2.61-2.613A2.61,2.61,0,0,1,575.478,390.616Z" transform="translate(-570.257 -388.003)"/>
                <circle id="Эллипс_46" data-name="Эллипс 46" cx="2.611" cy="2.611" r="2.611" transform="translate(39.319 0.001)"/>
                <circle id="Эллипс_47" data-name="Эллипс 47" cx="2.611" cy="2.611" r="2.611" transform="translate(78.638 0.001)"/>
                <circle id="Эллипс_48" data-name="Эллипс 48" cx="2.611" cy="2.611" r="2.611" transform="translate(117.956 0.001)"/>
                <path id="Контур_817" data-name="Контур 817" d="M635.3,390.616a2.611,2.611,0,1,1-2.61-2.613A2.61,2.61,0,0,1,635.3,390.616Z" transform="translate(-472.807 -388.003)"/>
              </g>
              <g id="Сгруппировать_1840" data-name="Сгруппировать 1840" transform="translate(19.659 29.951)">
                <path id="Контур_818" data-name="Контур 818" d="M582.956,402.007a2.611,2.611,0,1,1-2.61-2.611A2.608,2.608,0,0,1,582.956,402.007Z" transform="translate(-577.735 -399.396)"/>
                <circle id="Эллипс_49" data-name="Эллипс 49" cx="2.611" cy="2.611" r="2.611" transform="translate(39.319)"/>
                <circle id="Эллипс_50" data-name="Эллипс 50" cx="2.611" cy="2.611" r="2.611" transform="translate(78.638)"/>
                <path id="Контур_819" data-name="Контур 819" d="M627.825,402.007a2.611,2.611,0,1,1-2.611-2.611A2.609,2.609,0,0,1,627.825,402.007Z" transform="translate(-504.647 -399.396)"/>
              </g>
            </g>
            <g id="Сгруппировать_1844" data-name="Сгруппировать 1844" transform="translate(0 120.106)">
              <g id="Сгруппировать_1842" data-name="Сгруппировать 1842">
                <path id="Контур_820" data-name="Контур 820" d="M575.478,413.458a2.611,2.611,0,1,1-2.61-2.611A2.61,2.61,0,0,1,575.478,413.458Z" transform="translate(-570.257 -410.846)"/>
                <circle id="Эллипс_51" data-name="Эллипс 51" cx="2.611" cy="2.611" r="2.611" transform="translate(39.319)"/>
                <circle id="Эллипс_52" data-name="Эллипс 52" cx="2.611" cy="2.611" r="2.611" transform="translate(78.638)"/>
                <circle id="Эллипс_53" data-name="Эллипс 53" cx="2.611" cy="2.611" r="2.611" transform="translate(117.956)"/>
                <path id="Контур_821" data-name="Контур 821" d="M635.3,413.458a2.611,2.611,0,1,1-2.61-2.611A2.61,2.61,0,0,1,635.3,413.458Z" transform="translate(-472.807 -410.846)"/>
              </g>
              <g id="Сгруппировать_1843" data-name="Сгруппировать 1843" transform="translate(19.659 29.95)">
                <path id="Контур_822" data-name="Контур 822" d="M582.956,424.849a2.611,2.611,0,1,1-2.61-2.61A2.611,2.611,0,0,1,582.956,424.849Z" transform="translate(-577.735 -422.239)"/>
                <circle id="Эллипс_54" data-name="Эллипс 54" cx="2.611" cy="2.611" r="2.611" transform="translate(39.319 0)"/>
                <circle id="Эллипс_55" data-name="Эллипс 55" cx="2.611" cy="2.611" r="2.611" transform="translate(78.638 0)"/>
                <path id="Контур_823" data-name="Контур 823" d="M627.825,424.849a2.611,2.611,0,1,1-2.611-2.61A2.611,2.611,0,0,1,627.825,424.849Z" transform="translate(-504.647 -422.239)"/>
              </g>
            </g>
          </g>
        </g>
        <path id="Контур_831" data-name="Контур 831" d="M690.525,610.342H551.15V470.967H690.525Zm-139.125-.25H690.275V471.217H551.4Zm117.72-21.155H572.552V492.369H669.12Zm-96.318-.25H668.87V492.619H572.8Z" transform="translate(-2097.588 1819.371)"/>
        <path id="Контур_832" data-name="Контур 832" d="M862.792,448.877H723.414V309.5H862.792Zm-139.128-.25H862.542V309.752H723.664Zm117.723-21.152H744.819V330.907h96.568Zm-96.318-.25h96.068V331.157H745.069Z" transform="translate(-1816.984 1556.358)"/>
        <path id="Контур_838" data-name="Контур 838" d="M582.129,355.625a23.774,23.774,0,0,1-2.905-.181,46.324,46.324,0,0,1-10.9-3.165c-6.883-2.635-14-5.359-23.842-1.11l-.066-.153a26.85,26.85,0,0,1,6.935-2.009,23.071,23.071,0,0,1,6.132-.049,46.317,46.317,0,0,1,10.9,3.165c6.883,2.635,14,5.359,23.843,1.111s12.74-11.3,15.543-18.113a46.316,46.316,0,0,1,5.172-10.1,23.072,23.072,0,0,1,4.241-4.429,28.82,28.82,0,0,1,13.154-5.678,23.078,23.078,0,0,1,6.132-.049,46.32,46.32,0,0,1,10.9,3.165c6.883,2.635,14,5.359,23.843,1.109s12.743-11.3,15.547-18.113a46.331,46.331,0,0,1,5.174-10.1,23.084,23.084,0,0,1,4.242-4.429,28.82,28.82,0,0,1,13.155-5.679,23.084,23.084,0,0,1,6.133-.049,46.331,46.331,0,0,1,10.9,3.164c6.884,2.634,14,5.357,23.846,1.108l.066.153a26.867,26.867,0,0,1-6.937,2.009,23.087,23.087,0,0,1-6.133.049,46.333,46.333,0,0,1-10.9-3.164c-6.884-2.634-14-5.357-23.846-1.108s-12.743,11.3-15.547,18.113a46.332,46.332,0,0,1-5.174,10.1,23.084,23.084,0,0,1-4.242,4.429,28.821,28.821,0,0,1-13.154,5.679,23.076,23.076,0,0,1-6.132.049,46.323,46.323,0,0,1-10.9-3.165c-6.883-2.635-14-5.359-23.843-1.109s-12.74,11.3-15.543,18.111a46.326,46.326,0,0,1-5.172,10.1,23.075,23.075,0,0,1-4.241,4.429,28.8,28.8,0,0,1-13.153,5.678A22.924,22.924,0,0,1,582.129,355.625Z" transform="translate(-2108.708 1509.185)"/>
        <path id="Контур_839" data-name="Контур 839" d="M761.81,523.855a23.78,23.78,0,0,1-2.9-.181,46.329,46.329,0,0,1-10.9-3.165c-6.883-2.635-14-5.36-23.843-1.11l-.066-.153a26.85,26.85,0,0,1,6.935-2.009,23.076,23.076,0,0,1,6.132-.049,46.326,46.326,0,0,1,10.9,3.165c6.883,2.635,14,5.359,23.841,1.111s12.74-11.3,15.543-18.112a46.324,46.324,0,0,1,5.173-10.1,23.078,23.078,0,0,1,4.241-4.43,28.81,28.81,0,0,1,13.154-5.678,23.078,23.078,0,0,1,6.132-.048,46.333,46.333,0,0,1,10.9,3.165c6.883,2.634,14,5.359,23.842,1.111s12.743-11.3,15.547-18.114a46.328,46.328,0,0,1,5.174-10.1,23.076,23.076,0,0,1,4.242-4.429,28.827,28.827,0,0,1,13.155-5.678,23.088,23.088,0,0,1,6.133-.049,46.331,46.331,0,0,1,10.9,3.164c6.883,2.634,14,5.357,23.846,1.108l.066.153a26.865,26.865,0,0,1-6.937,2.009,23.084,23.084,0,0,1-6.133.049,46.333,46.333,0,0,1-10.9-3.164c-6.884-2.634-14-5.357-23.846-1.108s-12.743,11.3-15.547,18.113a46.336,46.336,0,0,1-5.174,10.1,23.083,23.083,0,0,1-4.242,4.43,28.809,28.809,0,0,1-13.154,5.678,23.078,23.078,0,0,1-6.132.048,46.33,46.33,0,0,1-10.9-3.165c-6.883-2.635-14-5.359-23.842-1.111s-12.742,11.3-15.546,18.114a46.325,46.325,0,0,1-5.173,10.1,23.08,23.08,0,0,1-4.241,4.429,28.8,28.8,0,0,1-13.152,5.678A22.9,22.9,0,0,1,761.81,523.855Z" transform="translate(-1816.023 1783.218)"/>
        <g id="Сгруппировать_1882" data-name="Сгруппировать 1882" transform="translate(-1220.021 2334.615)">
          <g id="Сгруппировать_1881" data-name="Сгруппировать 1881">
            <g id="Сгруппировать_1877" data-name="Сгруппировать 1877" transform="translate(0 16.98)">
              <g id="Сгруппировать_1875" data-name="Сгруппировать 1875">
                <path id="Контур_860" data-name="Контур 860" d="M675.391,501.588l12.544,7.242V494.345Z" transform="translate(-675.391 -494.345)"/>
              </g>
              <g id="Сгруппировать_1876" data-name="Сгруппировать 1876" transform="translate(35.901)">
                <path id="Контур_861" data-name="Контур 861" d="M701.591,501.588l-12.544-7.242V508.83Z" transform="translate(-689.047 -494.345)"/>
              </g>
            </g>
            <g id="Сгруппировать_1880" data-name="Сгруппировать 1880" transform="translate(16.98)">
              <g id="Сгруппировать_1878" data-name="Сгруппировать 1878" transform="translate(0 35.901)">
                <path id="Контур_862" data-name="Контур 862" d="M689.093,514.087l7.242-12.544H681.85Z" transform="translate(-681.85 -501.542)"/>
              </g>
              <g id="Сгруппировать_1879" data-name="Сгруппировать 1879">
                <path id="Контур_863" data-name="Контур 863" d="M689.093,487.886l-7.242,12.544h14.485Z" transform="translate(-681.85 -487.886)"/>
              </g>
            </g>
          </g>
        </g>
        <g transform="matrix(0.71, -0.71, 0.71, 0.71, -3078.5, 3005.19)" filter="url(#Эллипс_7)">
          <circle id="Эллипс_7-3" data-name="Эллипс 7" cx="251.424" cy="251.424" r="251.424" transform="translate(1797.68 640.55)" fill="#fff"/>
        </g>
      </g>
    </g>
    <g id="Сгруппировать_1912" data-name="Сгруппировать 1912" transform="translate(243 -561)">
      <path id="Контур_129" data-name="Контур 129" d="M334.275,84.724a83.256,83.256,0,0,1,15.155,1.4,81.647,81.647,0,0,1,14.8,4.215,77.5,77.5,0,0,1,13.85,7.078,72.948,72.948,0,0,1,28.661,35.409,94.351,94.351,0,0,1,5.941,35.163c-.323,31.68,4.049,50.115,14.618,61.645,10.143,11.065,25.549,15.448,46.873,21.515,5.764,1.64,11.724,3.336,18.19,5.332,9.446,2.916,18.083,9.676,25.669,20.094a104.677,104.677,0,0,1,9.9,16.986,158.932,158.932,0,0,1,7.859,20.487,217.571,217.571,0,0,1,5.753,23.156c1.551,8.033,2.752,16.442,3.571,24.993s1.26,17.3,1.311,26c.052,8.792-.294,17.6-1.029,26.168a240.061,240.061,0,0,1-7.206,41.987,155.659,155.659,0,0,1-14.419,36.189c-6.273,11.042-13.7,19.939-22.06,26.442a63.5,63.5,0,0,1-14.031,8.312,60.867,60.867,0,0,1-16.086,4.357,54.812,54.812,0,0,1-6.99.457c-18.756,0-32.147-10.134-43.962-19.075-9.548-7.225-17.793-13.465-27.135-13.465-8.8,0-17.58,5.612-27.62,17.661a115.392,115.392,0,0,1-15.455,15.426,93.532,93.532,0,0,1-16.268,10.766,77.536,77.536,0,0,1-16.5,6.31,65.936,65.936,0,0,1-16.135,2.058,56.329,56.329,0,0,1-21.98-4.327,51.988,51.988,0,0,1-17.953-12.523,57.61,57.61,0,0,1-12.668-22.018,79.84,79.84,0,0,1-3.212-29.87c.331-4.8.814-9.6,1.28-14.238.944-9.382,1.835-18.244,1.408-26.051-.475-8.691-2.518-14.827-6.429-19.31-4.963-5.688-13.048-8.656-24.718-9.073-16.326-.582-30.738-6.185-41.68-16.2a58.789,58.789,0,0,1-12.552-16.429,61.592,61.592,0,0,1-6.262-19.792,65.841,65.841,0,0,1,1.361-25.048,73.668,73.668,0,0,1,11.473-24.809,91.315,91.315,0,0,1,22.438-22,129.008,129.008,0,0,1,34.244-16.649c29.141-9.462,45.915-23.01,51.279-41.42,4.751-16.3.276-34.433-4.051-51.966-1.668-6.759-3.393-13.747-4.491-20.361a73.011,73.011,0,0,1,.78-29.92,55.607,55.607,0,0,1,11.522-22.547,58.076,58.076,0,0,1,10.709-9.785A65.314,65.314,0,0,1,304.837,90.4a73.854,73.854,0,0,1,14.29-4.251A80.553,80.553,0,0,1,334.275,84.724ZM464.6,531.1a53.816,53.816,0,0,0,6.862-.449c21.125-2.728,38.43-15.719,51.436-38.613,11.429-20.119,18.863-47.01,21.5-77.767,2.95-34.428-.536-70.852-9.565-99.933-4.67-15.04-10.593-27.55-17.607-37.181-7.457-10.239-15.92-16.876-25.156-19.727-6.455-1.993-12.41-3.687-18.168-5.325-10.658-3.032-19.862-5.651-27.731-8.925-8.606-3.581-14.835-7.672-19.605-12.875a42.815,42.815,0,0,1-6.75-9.881,61.955,61.955,0,0,1-4.708-13.172c-2.471-10.071-3.591-22.919-3.424-39.278.249-24.373-7.36-45.077-22.006-59.873-14.076-14.221-34.268-22.377-55.4-22.377-21.243,0-40.268,8.072-52.2,22.146C270.778,121.2,266.6,139.064,270,159.526c1.091,6.576,2.735,13.235,4.475,20.285,4.359,17.661,8.867,35.923,4.041,52.485a45.6,45.6,0,0,1-5.538,12.094,52.825,52.825,0,0,1-9.932,11.2,80.164,80.164,0,0,1-15.176,10.068,139.428,139.428,0,0,1-21.284,8.732c-57.242,18.586-72.856,58.709-68.835,87.42,4.163,29.721,28.09,50.443,59.54,51.564,11.961.427,20.281,3.507,25.435,9.415a24.4,24.4,0,0,1,4.853,8.919A44.523,44.523,0,0,1,249.4,442.7c.431,7.885-.464,16.784-1.412,26.206-.466,4.634-.948,9.425-1.278,14.207a78.848,78.848,0,0,0,3.167,29.5,56.618,56.618,0,0,0,12.446,21.64c9.95,10.661,23.872,16.532,39.2,16.532a64.935,64.935,0,0,0,15.889-2.027,76.535,76.535,0,0,0,16.282-6.229c11.4-5.883,21.971-14.612,31.413-25.943,5.341-6.409,10.3-10.969,15.156-13.94A25,25,0,0,1,393.5,498.56c4.433,0,8.879,1.325,13.99,4.169a122.918,122.918,0,0,1,13.749,9.5C432.927,521.074,446.176,531.1,464.6,531.1Z" transform="translate(57.361 4894.265)" fill="#27debf" opacity="0.5"/>
      <circle id="Эллипс_55-2" data-name="Эллипс 55" cx="43.5" cy="43.5" r="43.5" transform="translate(433 5369)" fill="#4c4083" opacity="0.22"/>
      <circle id="Эллипс_52-2" data-name="Эллипс 52" cx="43.5" cy="43.5" r="43.5" transform="translate(980 5287)" fill="#4c4083" opacity="0.06"/>
      <path id="Эллипс_51-2" data-name="Эллипс 51" d="M19.5,9A10.5,10.5,0,1,0,30,19.5,10.512,10.512,0,0,0,19.5,9m0-9A19.5,19.5,0,1,1,0,19.5,19.5,19.5,0,0,1,19.5,0Z" transform="translate(791 5442)" fill="#f0f220" opacity="0.22"/>
      <path id="Эллипс_53-2" data-name="Эллипс 53" d="M19.5,9A10.5,10.5,0,1,0,30,19.5,10.512,10.512,0,0,0,19.5,9m0-9A19.5,19.5,0,1,1,0,19.5,19.5,19.5,0,0,1,19.5,0Z" transform="translate(972 5008)" fill="#27debf" opacity="0.22"/>
      <path id="Эллипс_54-2" data-name="Эллипс 54" d="M19.5,9A10.5,10.5,0,1,0,30,19.5,10.512,10.512,0,0,0,19.5,9m0-9A19.5,19.5,0,1,1,0,19.5,19.5,19.5,0,0,1,19.5,0Z" transform="translate(623 4919)" fill="#ffe7cc" opacity="0.22"/>
    </g>
    <g id="Сгруппировать_1920" data-name="Сгруппировать 1920" transform="translate(48.568 2875.933) rotate(45)">
      <g id="Сгруппировать_1899-2" data-name="Сгруппировать 1899" transform="translate(2910 -354.882)">
        <path id="Контур_746-2" data-name="Контур 746" d="M535.47,505.081l224.49,155.026V350.056Z" transform="matrix(-0.259, 0.966, -0.966, -0.259, -596.102, 1573.254)" fill="#d7d5e4"/>
        <path id="Контур_747-2" data-name="Контур 747" d="M680.368,577.5l507.318,350.338V227.157Z" transform="translate(-2103.823 1122.981)" fill="#f4f4f8"/>
        <g id="Сгруппировать_1846-2" data-name="Сгруппировать 1846" transform="translate(-1454.411 2013.977)" opacity="0.51">
          <g id="Сгруппировать_1845-2" data-name="Сгруппировать 1845">
            <g id="Сгруппировать_1838-2" data-name="Сгруппировать 1838">
              <g id="Сгруппировать_1836-2" data-name="Сгруппировать 1836">
                <path id="Контур_812-2" data-name="Контур 812" d="M575.478,367.771a2.611,2.611,0,1,1-2.61-2.611A2.608,2.608,0,0,1,575.478,367.771Z" transform="translate(-570.257 -365.16)"/>
                <circle id="Эллипс_41-2" data-name="Эллипс 41" cx="2.611" cy="2.611" r="2.611" transform="translate(39.319)"/>
                <circle id="Эллипс_42-2" data-name="Эллипс 42" cx="2.611" cy="2.611" r="2.611" transform="translate(78.638)"/>
                <circle id="Эллипс_43-2" data-name="Эллипс 43" cx="2.611" cy="2.611" r="2.611" transform="translate(117.956)"/>
                <path id="Контур_813-2" data-name="Контур 813" d="M635.3,367.771a2.611,2.611,0,1,1-2.61-2.611A2.608,2.608,0,0,1,635.3,367.771Z" transform="translate(-472.807 -365.16)"/>
              </g>
              <g id="Сгруппировать_1837-2" data-name="Сгруппировать 1837" transform="translate(19.659 29.949)">
                <path id="Контур_814-2" data-name="Контур 814" d="M582.956,379.165a2.611,2.611,0,1,1-2.61-2.613A2.61,2.61,0,0,1,582.956,379.165Z" transform="translate(-577.735 -376.552)"/>
                <circle id="Эллипс_44-2" data-name="Эллипс 44" cx="2.611" cy="2.611" r="2.611" transform="translate(39.319 0.001)"/>
                <circle id="Эллипс_45-2" data-name="Эллипс 45" cx="2.611" cy="2.611" r="2.611" transform="translate(78.638 0.001)"/>
                <path id="Контур_815-2" data-name="Контур 815" d="M627.825,379.165a2.611,2.611,0,1,1-2.611-2.613A2.61,2.61,0,0,1,627.825,379.165Z" transform="translate(-504.647 -376.552)"/>
              </g>
            </g>
            <g id="Сгруппировать_1841-2" data-name="Сгруппировать 1841" transform="translate(0 60.052)">
              <g id="Сгруппировать_1839-2" data-name="Сгруппировать 1839">
                <path id="Контур_816-2" data-name="Контур 816" d="M575.478,390.616a2.611,2.611,0,1,1-2.61-2.613A2.61,2.61,0,0,1,575.478,390.616Z" transform="translate(-570.257 -388.003)"/>
                <circle id="Эллипс_46-2" data-name="Эллипс 46" cx="2.611" cy="2.611" r="2.611" transform="translate(39.319 0.001)"/>
                <circle id="Эллипс_47-2" data-name="Эллипс 47" cx="2.611" cy="2.611" r="2.611" transform="translate(78.638 0.001)"/>
                <circle id="Эллипс_48-2" data-name="Эллипс 48" cx="2.611" cy="2.611" r="2.611" transform="translate(117.956 0.001)"/>
                <path id="Контур_817-2" data-name="Контур 817" d="M635.3,390.616a2.611,2.611,0,1,1-2.61-2.613A2.61,2.61,0,0,1,635.3,390.616Z" transform="translate(-472.807 -388.003)"/>
              </g>
              <g id="Сгруппировать_1840-2" data-name="Сгруппировать 1840" transform="translate(19.659 29.951)">
                <path id="Контур_818-2" data-name="Контур 818" d="M582.956,402.007a2.611,2.611,0,1,1-2.61-2.611A2.608,2.608,0,0,1,582.956,402.007Z" transform="translate(-577.735 -399.396)"/>
                <circle id="Эллипс_49-2" data-name="Эллипс 49" cx="2.611" cy="2.611" r="2.611" transform="translate(39.319)"/>
                <circle id="Эллипс_50-2" data-name="Эллипс 50" cx="2.611" cy="2.611" r="2.611" transform="translate(78.638)"/>
                <path id="Контур_819-2" data-name="Контур 819" d="M627.825,402.007a2.611,2.611,0,1,1-2.611-2.611A2.609,2.609,0,0,1,627.825,402.007Z" transform="translate(-504.647 -399.396)"/>
              </g>
            </g>
            <g id="Сгруппировать_1844-2" data-name="Сгруппировать 1844" transform="translate(0 120.106)">
              <g id="Сгруппировать_1842-2" data-name="Сгруппировать 1842">
                <path id="Контур_820-2" data-name="Контур 820" d="M575.478,413.458a2.611,2.611,0,1,1-2.61-2.611A2.61,2.61,0,0,1,575.478,413.458Z" transform="translate(-570.257 -410.846)"/>
                <circle id="Эллипс_51-3" data-name="Эллипс 51" cx="2.611" cy="2.611" r="2.611" transform="translate(39.319)"/>
                <circle id="Эллипс_52-3" data-name="Эллипс 52" cx="2.611" cy="2.611" r="2.611" transform="translate(78.638)"/>
                <circle id="Эллипс_53-3" data-name="Эллипс 53" cx="2.611" cy="2.611" r="2.611" transform="translate(117.956)"/>
                <path id="Контур_821-2" data-name="Контур 821" d="M635.3,413.458a2.611,2.611,0,1,1-2.61-2.611A2.61,2.61,0,0,1,635.3,413.458Z" transform="translate(-472.807 -410.846)"/>
              </g>
              <g id="Сгруппировать_1843-2" data-name="Сгруппировать 1843" transform="translate(19.659 29.95)">
                <path id="Контур_822-2" data-name="Контур 822" d="M582.956,424.849a2.611,2.611,0,1,1-2.61-2.61A2.611,2.611,0,0,1,582.956,424.849Z" transform="translate(-577.735 -422.239)"/>
                <circle id="Эллипс_54-3" data-name="Эллипс 54" cx="2.611" cy="2.611" r="2.611" transform="translate(39.319 0)"/>
                <circle id="Эллипс_55-3" data-name="Эллипс 55" cx="2.611" cy="2.611" r="2.611" transform="translate(78.638 0)"/>
                <path id="Контур_823-2" data-name="Контур 823" d="M627.825,424.849a2.611,2.611,0,1,1-2.611-2.61A2.611,2.611,0,0,1,627.825,424.849Z" transform="translate(-504.647 -422.239)"/>
              </g>
            </g>
          </g>
        </g>
        <path id="Контур_831-2" data-name="Контур 831" d="M690.525,610.342H551.15V470.967H690.525Zm-139.125-.25H690.275V471.217H551.4Zm117.72-21.155H572.552V492.369H669.12Zm-96.318-.25H668.87V492.619H572.8Z" transform="translate(-2097.588 1819.371)"/>
        <path id="Контур_832-2" data-name="Контур 832" d="M862.792,448.877H723.414V309.5H862.792Zm-139.128-.25H862.542V309.752H723.664Zm117.723-21.152H744.819V330.907h96.568Zm-96.318-.25h96.068V331.157H745.069Z" transform="translate(-1816.984 1556.358)"/>
        <path id="Контур_838-2" data-name="Контур 838" d="M582.129,355.625a23.774,23.774,0,0,1-2.905-.181,46.324,46.324,0,0,1-10.9-3.165c-6.883-2.635-14-5.359-23.842-1.11l-.066-.153a26.85,26.85,0,0,1,6.935-2.009,23.071,23.071,0,0,1,6.132-.049,46.317,46.317,0,0,1,10.9,3.165c6.883,2.635,14,5.359,23.843,1.111s12.74-11.3,15.543-18.113a46.316,46.316,0,0,1,5.172-10.1,23.072,23.072,0,0,1,4.241-4.429,28.82,28.82,0,0,1,13.154-5.678,23.078,23.078,0,0,1,6.132-.049,46.32,46.32,0,0,1,10.9,3.165c6.883,2.635,14,5.359,23.843,1.109s12.743-11.3,15.547-18.113a46.331,46.331,0,0,1,5.174-10.1,23.084,23.084,0,0,1,4.242-4.429,28.82,28.82,0,0,1,13.155-5.679,23.084,23.084,0,0,1,6.133-.049,46.331,46.331,0,0,1,10.9,3.164c6.884,2.634,14,5.357,23.846,1.108l.066.153a26.867,26.867,0,0,1-6.937,2.009,23.087,23.087,0,0,1-6.133.049,46.333,46.333,0,0,1-10.9-3.164c-6.884-2.634-14-5.357-23.846-1.108s-12.743,11.3-15.547,18.113a46.332,46.332,0,0,1-5.174,10.1,23.084,23.084,0,0,1-4.242,4.429,28.821,28.821,0,0,1-13.154,5.679,23.076,23.076,0,0,1-6.132.049,46.323,46.323,0,0,1-10.9-3.165c-6.883-2.635-14-5.359-23.843-1.109s-12.74,11.3-15.543,18.111a46.326,46.326,0,0,1-5.172,10.1,23.075,23.075,0,0,1-4.241,4.429,28.8,28.8,0,0,1-13.153,5.678A22.924,22.924,0,0,1,582.129,355.625Z" transform="translate(-2108.708 1509.185)"/>
        <path id="Контур_839-2" data-name="Контур 839" d="M761.81,523.855a23.78,23.78,0,0,1-2.9-.181,46.329,46.329,0,0,1-10.9-3.165c-6.883-2.635-14-5.36-23.843-1.11l-.066-.153a26.85,26.85,0,0,1,6.935-2.009,23.076,23.076,0,0,1,6.132-.049,46.326,46.326,0,0,1,10.9,3.165c6.883,2.635,14,5.359,23.841,1.111s12.74-11.3,15.543-18.112a46.324,46.324,0,0,1,5.173-10.1,23.078,23.078,0,0,1,4.241-4.43,28.81,28.81,0,0,1,13.154-5.678,23.078,23.078,0,0,1,6.132-.048,46.333,46.333,0,0,1,10.9,3.165c6.883,2.634,14,5.359,23.842,1.111s12.743-11.3,15.547-18.114a46.328,46.328,0,0,1,5.174-10.1,23.076,23.076,0,0,1,4.242-4.429,28.827,28.827,0,0,1,13.155-5.678,23.088,23.088,0,0,1,6.133-.049,46.331,46.331,0,0,1,10.9,3.164c6.883,2.634,14,5.357,23.846,1.108l.066.153a26.865,26.865,0,0,1-6.937,2.009,23.084,23.084,0,0,1-6.133.049,46.333,46.333,0,0,1-10.9-3.164c-6.884-2.634-14-5.357-23.846-1.108s-12.743,11.3-15.547,18.113a46.336,46.336,0,0,1-5.174,10.1,23.083,23.083,0,0,1-4.242,4.43,28.809,28.809,0,0,1-13.154,5.678,23.078,23.078,0,0,1-6.132.048,46.33,46.33,0,0,1-10.9-3.165c-6.883-2.635-14-5.359-23.842-1.111s-12.742,11.3-15.546,18.114a46.325,46.325,0,0,1-5.173,10.1,23.08,23.08,0,0,1-4.241,4.429,28.8,28.8,0,0,1-13.152,5.678A22.9,22.9,0,0,1,761.81,523.855Z" transform="translate(-1816.023 1783.218)"/>
        <g id="Сгруппировать_1882-2" data-name="Сгруппировать 1882" transform="translate(-1220.021 2334.615)">
          <g id="Сгруппировать_1881-2" data-name="Сгруппировать 1881">
            <g id="Сгруппировать_1877-2" data-name="Сгруппировать 1877" transform="translate(0 16.98)">
              <g id="Сгруппировать_1875-2" data-name="Сгруппировать 1875">
                <path id="Контур_860-2" data-name="Контур 860" d="M675.391,501.588l12.544,7.242V494.345Z" transform="translate(-675.391 -494.345)"/>
              </g>
              <g id="Сгруппировать_1876-2" data-name="Сгруппировать 1876" transform="translate(35.901)">
                <path id="Контур_861-2" data-name="Контур 861" d="M701.591,501.588l-12.544-7.242V508.83Z" transform="translate(-689.047 -494.345)"/>
              </g>
            </g>
            <g id="Сгруппировать_1880-2" data-name="Сгруппировать 1880" transform="translate(16.98)">
              <g id="Сгруппировать_1878-2" data-name="Сгруппировать 1878" transform="translate(0 35.901)">
                <path id="Контур_862-2" data-name="Контур 862" d="M689.093,514.087l7.242-12.544H681.85Z" transform="translate(-681.85 -501.542)"/>
              </g>
              <g id="Сгруппировать_1879-2" data-name="Сгруппировать 1879">
                <path id="Контур_863-2" data-name="Контур 863" d="M689.093,487.886l-7.242,12.544h14.485Z" transform="translate(-681.85 -487.886)"/>
              </g>
            </g>
          </g>
        </g>
        <g transform="matrix(0.71, -0.71, 0.71, 0.71, -2232.95, 1743.2)" filter="url(#Эллипс_7-2)">
          <circle id="Эллипс_7-4" data-name="Эллипс 7" cx="251.424" cy="251.424" r="251.424" transform="translate(307.43 935.01)" fill="#fff"/>
        </g>
      </g>
    </g>
  </g>
</svg>
